<svg xmlns="http://www.w3.org/2000/svg" viewBox="0 0 512 512" role="img" aria-label="Liga De Lincoln">
  <rect width="512" height="512" rx="96" fill="#166534" />
  <circle cx="256" cy="256" r="154" fill="#ffffff" />
  <path
    fill="#166534"
    d="M256 118c-76.2 0-138 61.8-138 138s61.8 138 138 138 138-61.8 138-138-61.8-138-138-138Zm0 35 45 33-17 53h-56l-17-53 45-33Zm-88 96 45-33 45 33-17 53h-56l-17-53Zm176 0-17 53h-56l-17-53 45-33 45 33Zm-119 107 17-53h56l17 53-45 33-45-33Z"
  />
  <path
    fill="#ffffff"
    d="M256 74c100.5 0 182 81.5 182 182s-81.5 182-182 182S74 356.5 74 256 155.5 74 256 74Zm0 32c-82.8 0-150 67.2-150 150s67.2 150 150 150 150-67.2 150-150-67.2-150-150-150Z"
    opacity="0.92"
  />
</svg>
